<svg id="Layer_1" data-name="Layer 1" xmlns="http://www.w3.org/2000/svg" viewBox="0 0 709.27 106.21"><defs><style>.cls-1{fill:#fff;}</style></defs><title>lisvg</title><g id="Layer_2" data-name="Layer 2"><g id="Layer_1-2" data-name="Layer 1-2"><path class="cls-1" d="M0,3.13H8.73c20.66,0,41.31.09,62,0,3,0,4.77.89,6.22,3.63C82.86,17.88,89.21,28.82,95.07,40c6.22,11.87,15.58,18.26,29.17,18.1,6.16-.08,12.33-.11,18.48.14,1.56.06,3.84.8,4.49,2,8.41,14.89,16.58,29.91,25.14,45.49-2.13.12-3.69.29-5.25.29-21.82,0-43.65-.45-65.46.11-28.75.73-50.23-11.5-64.66-35.72C24.3,49.11,12.73,27.17.69,5.5A14,14,0,0,1,0,3.13Z" transform="translate(0 0)"/><path class="cls-1" d="M126.18,2.91c26.7,0,52.48,0,78.26.08a4.73,4.73,0,0,1,3.61,1.75c8.4,15,16.63,30.18,25.21,45.88-2.14.11-3.55.25-5,.25-23.63,0-47.25-.07-70.88.09-3.76,0-5.93-.94-7.77-4.45C142.51,33,135,19.64,127.71,6.23,127.28,5.39,126.92,4.49,126.18,2.91Z" transform="translate(0 0)"/><path class="cls-1" d="M156.71,58.1c26.53,0,52.17,0,77.8.09a5.33,5.33,0,0,1,4,2.06c8.33,14.91,16.47,29.92,25,45.49-2,.15-3.4.35-4.79.35-23.81,0-47.63,0-71.44.12-3.44,0-5.33-1.08-6.94-4.1-7.23-13.48-14.69-26.84-22-40.25A28,28,0,0,1,156.71,58.1Z" transform="translate(0 0)"/><path class="cls-1" d="M434.78,99.3,468.67,4.84c4.88,0,9.85-.13,14.81.11a4.29,4.29,0,0,1,3.08,2.29Q502.93,52.15,519,97.15a7.44,7.44,0,0,1,0,2c-4.87,0-9.65.16-14.4-.14-1-.06-2.21-1.72-2.64-2.9-2.07-5.6-4.06-11.24-5.73-17-.74-2.54-1.87-3.44-4.5-3.41q-14.48.18-29,0c-2.65,0-3.85,1-4.58,3.35-1.73,5.71-3.49,11.43-5.58,17-.49,1.33-2.23,3-3.52,3.09C444.69,99.53,440.2,99.3,434.78,99.3Zm42.89-77h-1.13l-12.4,38.39h26.09c-4.29-13.12-8.43-25.76-12.56-38.41Z" transform="translate(0 0)"/><path class="cls-1" d="M709.27,64.21c-.25,17.27-8.72,30.51-22.51,34.84-20,6.28-38.82-5.86-41.8-26.58-1.26-8.79-.77-17.29,2.55-25.46C653,33.65,666.21,26.28,681,28.06c13.7,1.65,24.67,12.43,27.13,26.76C708.62,57.93,708.88,61.08,709.27,64.21Zm-15.19.06-.82-.24c-.08-1.83,0-3.67-.26-5.48C691.78,49,686.14,43,677.65,42.22c-7.22-.68-13.88,3.71-16.22,11.34a33.51,33.51,0,0,0,.79,23c2.3,5.62,6.37,9.15,12.79,9.58,6.82.45,12.33-1.87,15.15-8.16C692.07,73.65,692.81,68.84,694.08,64.27Z" transform="translate(0 0)"/><path class="cls-1" d="M571,29.39h14.76V98.91H573.3c-.43-3-.88-6.1-1.35-9.37-.44.18-1,.22-1.16.5-7.15,9.9-16.54,13-28.44,9.27-9.16-2.84-15-11-15.17-22.29-.24-15.76-.06-31.53-.06-47.6h15v5.4c0,12.32,0,24.64,0,37,.06,10,3.47,14.39,11.46,15,9.09.72,15.48-4,16.58-13.41.87-7.56.65-15.26.77-22.9C571,43.68,571,36.87,571,29.39Z" transform="translate(0 0)"/><path class="cls-1" d="M307.13,5h15.23V83.87h43.08v15H307.13Z" transform="translate(0 0)"/><path class="cls-1" d="M635.67,86.75v14c-6.4-.47-12.69-.24-18.63-1.56-7.3-1.62-10.75-7.44-10.87-16.46-.16-11.48-.06-23-.07-34.45V42.94H596V29.38l10-.47V11.29h14.9V29h14.58V42.8H621.26c0,13.44-.17,26.36.22,39.27,0,1.6,2.87,3.92,4.81,4.46C629.05,87.32,632.18,86.75,635.67,86.75Z" transform="translate(0 0)"/><path class="cls-1" d="M393.46,99H378.57V29.19c4.26,0,8.52-.14,12.76.12.76.05,2,1.72,2,2.65C393.48,54.11,393.46,76.25,393.46,99Z" transform="translate(0 0)"/><path class="cls-1" d="M385.72,19.56a10.09,10.09,0,0,1-9.56-10.19A10,10,0,0,1,386.5,0a9.83,9.83,0,0,1,9.26,9.87A9.94,9.94,0,0,1,385.72,19.56Z" transform="translate(0 0)"/></g></g></svg>