<svg id="Layer_1" data-name="Layer 1" xmlns="http://www.w3.org/2000/svg" viewBox="0 0 942.46 57.51"><defs><style>.cls-1{fill:#fff;}</style></defs><title>lucidsvg</title><g id="Layer_2" data-name="Layer 2"><g id="Layer_1-2" data-name="Layer 1-2"><path class="cls-1" d="M842.38,55.59c-23.31,0-46.63-.22-69.93.12-8,.12-11.36-2.4-11-10.72.51-11.21.34-22.47,0-33.71-.17-6.8,2.31-9.74,9.39-9.71,47.46.18,94.92-.21,142.36.31,18.13.2,29.48,11.7,29.29,27.27-.19,15.4-11.76,25.93-30.25,26.29-23.31.45-46.62.11-69.93.11Zm6-42.85c-15.39,0-30.83.81-46.14-.25C790,11.63,785.55,16,787.51,27.82a21,21,0,0,1,0,6.23c-1.11,8.29,2.64,10.75,10.64,10.68q49.89-.48,99.79-.07c11.13.08,17.44-4.57,18-15.84.49-10.48-5.23-15.8-17.61-16-16.64-.26-33.28-.06-49.91-.08Z" transform="translate(-0.03 0.01)"/><path class="cls-1" d="M546.59,56.12H482.84c-6.24,0-12.58,0-18.48-2.41C453,49,445.66,41,445.94,28.13c.27-12.33,7.77-19.7,18.66-24.08,5.11-2,10.53-2.25,16-2.25q66.89.06,133.75,0c2.5,0,5,0,7.5.21,3.48.27,5.2,2.24,5,5.77-.14,3-1.92,4.51-4.73,4.69-3.32.22-6.66.23-10,.23h-120c-8.31,0-15.89,1.14-18.75,10.83-3.57,12.13,2.88,20.79,16.74,20.88,39.58.26,79.16.12,118.74.14,3.34,0,6.67,0,10,.09,3.83.15,7.89.31,8,5.6.17,5.51-4.1,5.61-7.82,5.64-17.92.17-35.83.15-53.75.2Q556,56.16,546.59,56.12Z" transform="translate(-0.03 0.01)"/><path class="cls-1" d="M317.58,55.6c-21.66,0-43.32.12-65,0-28.74-.2-44.47-22.87-33.93-49.52,3.32-8.41,11.67-3.35,17.7-4.24,5-.73,7.77,1.83,7.7,7.22-.1,7.49-.1,15,.15,22.49.25,7.88,4.35,12.56,12.43,12.59,35.82.15,71.64.08,107.46.22,6.15,0,7.9-3.27,7.9-8.63,0-8.33.35-16.67.1-25-.31-10.76,7.26-8.86,13.75-9.1,6.69-.25,12.62-.22,12.31,9.26-.37,11.65-.31,23.33,0,35,.22,7.78-3.38,9.93-10.63,9.84C364.24,55.41,340.91,55.59,317.58,55.6Z" transform="translate(-0.03 0.01)"/><path class="cls-1" d="M96.18,55.6c-20.44,0-40.88.09-61.32,0C8.35,55.45.35,47.49.34,21.5a50.13,50.13,0,0,0,0-6.25C-1,5.5,1.85,1.19,12.94,1.24S26,5.67,25.93,15.37c-.18,29,.14,29,28.77,29,36.29,0,72.59-.07,108.88.09,4.54,0,11.53-2,11.64,5.57.12,7.9-7.08,5.41-11.47,5.46C141.23,55.74,118.7,55.6,96.18,55.6Z" transform="translate(-0.03 0.01)"/><path class="cls-1" d="M707.07,29.23c0,4.59-.53,9.25.12,13.73,1.75,12.1-4,15-15,14.48-8.19-.38-11-3.27-10.74-11.22.43-12.06.53-24.17,0-36.22C681-.4,687.7.16,694.61,0c7.39-.14,13.44.53,12.56,10.5C706.62,16.7,707.06,23,707.07,29.23Z" transform="translate(-0.03 0.01)"/></g></g></svg>