<svg id="Layer_1" data-name="Layer 1" xmlns="http://www.w3.org/2000/svg" viewBox="0 0 581.63 201.86"><defs><style>.cls-1{fill:#fff;}</style></defs><title>niosvg</title><g id="Layer_2" data-name="Layer 2"><g id="Layer_1-2" data-name="Layer 1-2"><path class="cls-1" d="M0,108.92c1.25-37.67,16.63-68,47.54-89.6a107,107,0,0,1,118.78-2.61c33.58,21.37,50,52.68,51.67,92.35-1,.06-1.62.14-2.23.14H174.41c-1.81,0-3.63-.19-5.44-.3-6.17-.38-9.48-3.18-11.45-9-1.69-5-3.23-10.22-5.85-14.75C142.11,68.59,127.54,60,108.38,60c-22.21.1-40.67,14.63-47,36.31a42.62,42.62,0,0,1-2.15,6.34C57,107.55,52.52,109,47.61,109c-15.46.12-30.93.08-46.39.1A8.43,8.43,0,0,1,0,108.92Z" transform="translate(0 0.01)"/><path class="cls-1" d="M109.12,109.21c13.71,0,27.43.11,41.14-.06a17,17,0,0,1,13.26,5.39c13.81,14.08,27.82,28,41.81,41.88,1,1,.89,1.75.3,2.88a109.74,109.74,0,0,1-38.53,42.07,1.76,1.76,0,0,1-2.5-.09,1.73,1.73,0,0,1-.17-.21q-22.83-23-45.75-46a51.64,51.64,0,0,0-5-4.47c-3.11-2.38-6.44-2.51-9.42.05-3.82,3.27-7.38,6.84-11,10.39Q73.32,181,53.4,201c-.81.8-1.37,1.1-2.47.4a109.48,109.48,0,0,1-38.68-42.21c-.76-1.45-.35-2.22.64-3.21,13.89-13.82,27.82-27.6,41.57-41.55a16.66,16.66,0,0,1,12.88-5.3C81.26,109.32,95.19,109.21,109.12,109.21Z" transform="translate(0 0.01)"/><path class="cls-1" d="M394.57,165.47h-14c-2.31,0-4.63-.12-6.93,0-4.89.3-8.57-1.74-11.71-5.35q-21.17-24.28-42.45-48.47c-4.42-5-8.85-10.06-13.78-15v58a26.73,26.73,0,0,1-.18,4c-.53,3.61-2.79,6.36-6.36,6.52-7.17.32-14.37.09-21.83.09V163q0-54.16-.05-108.32c0-2,.53-2.61,2.55-2.56,6.09.12,12.18.14,18.26,0a14.49,14.49,0,0,1,12,5.38c4.78,5.58,9.66,11.07,14.49,16.6l40.71,46.63c.22.25.49.45,1.19,1.07V61.25c.14-6,3.11-9,9.11-9.09,5.32-.06,10.64,0,16,0h3.08Z" transform="translate(0 0.01)"/><path class="cls-1" d="M521.24,49.38c33.5.06,60.43,26.78,60.39,59.92,0,32.69-27.41,59.56-60.53,59.45s-60.32-26.93-60.28-59.7C460.86,76.05,487.93,49.31,521.24,49.38Zm-31.12,59.53a31.09,31.09,0,1,0,0-.2Z" transform="translate(0 0.01)"/><path class="cls-1" d="M443.52,165.35H415.38V61.8c0-6.58,3-9.62,9.62-9.64h16.38c.68,0,1.36.07,2.13.11Z" transform="translate(0 0.01)"/></g></g></svg>