<svg xmlns="http://www.w3.org/2000/svg" viewBox="0 0 1053.33 219.94"><defs><style>.cls-1{fill:#fff;}</style></defs><title>Asset 2</title><g id="Layer_2" data-name="Layer 2"><g id="Layer_1-2" data-name="Layer 1"><g id="Layer_2-2" data-name="Layer 2"><g id="Layer_1-2-2" data-name="Layer 1-2"><path class="cls-1" d="M0,117.22c1.07-.45,2.13-1.27,3.21-1.29,9.4-.17,18.8-.17,28.2-.26a9,9,0,0,1,6.84,3q25,25.53,50.22,50.88c5,5,10.38,9.72,15.71,14.41a13.59,13.59,0,0,0,18.29.17c6.18-5.24,12.22-10.69,17.95-16.42q24.18-24.24,48-48.82a9.51,9.51,0,0,1,7.4-3.19c9.25.12,18.51.12,27.77.25a9.28,9.28,0,0,1,2.8,1,8.86,8.86,0,0,1-1.23,2.53q-42.69,43.19-85.49,86.29a88.75,88.75,0,0,1-10,8.78,27.05,27.05,0,0,1-33.68-1c-6.43-5.5-12.63-11.3-18.58-17.31q-37.54-37.85-74.87-75.9c-.85-.87-1.68-1.76-2.52-2.64Z"/><path class="cls-1" d="M113.75,0c1.61.26,3.24.49,4.85.77A29.2,29.2,0,0,1,133.89,9c11.76,11.4,23.6,22.7,35.13,34.32,18.72,18.86,37.21,37.93,55.8,56.92a9.82,9.82,0,0,1,1.3,1.43c.81,1.21.35,2.24-1.09,2.5a9.8,9.8,0,0,1-1.71.08c-9.27,0-18.53,0-27.79.08a8.89,8.89,0,0,1-7.15-3.16c-19.41-21.3-39.86-41.56-61.1-61q-2.07-1.89-4.19-3.72c-5.84-5-13.71-5.12-19.3.2Q80.45,58.85,57.38,81.31c-6.51,6.37-12.62,13.16-18.77,19.89a9,9,0,0,1-7.15,3.16c-9.27-.1-18.53,0-27.79-.13-1.23,0-2.45-.8-3.67-1.23v-.43c.68-.74,1.34-1.49,2-2.2,15.19-15.55,30.25-31.21,45.59-46.6C62.77,38.59,78.18,23.67,93.52,8.69A27.89,27.89,0,0,1,106.4,1.25c2.13-.53,4.32-.84,6.49-1.25Z"/><path class="cls-1" d="M107.59,66.24c0,4.59-.07,9.19,0,13.78a7.26,7.26,0,0,1-2.46,5.71Q97.54,93,90,100.42c-1.48,1.46-2.89,3-4.26,4.56-2.88,3.31-2.94,7.06.14,10.21,5.88,6,11.82,12,17.92,17.72,2.57,2.43,4,4.92,3.87,8.6-.23,8.9-.06,17.81-.11,26.71a10.22,10.22,0,0,1-.66,2.54,9.15,9.15,0,0,1-2.13-1.21c-16.68-16.72-33.4-33.4-49.95-50.25-5.32-5.41-5.37-13-.08-18.4C70,85.2,85.48,69.71,100.88,54.15c1.31-1.33,2.65-2.64,4.07-3.84a7.3,7.3,0,0,1,2-.88,7.77,7.77,0,0,1,.59,1.94C107.62,56.33,107.59,61.28,107.59,66.24Z"/><path class="cls-1" d="M119.38,153.69c0-4.24.13-8.48,0-12.71a9.34,9.34,0,0,1,3.33-7.54c5.92-5.64,11.63-11.51,17.56-17.15,4-3.79,4-8.61.24-12.22-6-5.71-11.68-11.66-17.66-17.34a10,10,0,0,1-3.48-7.91c.16-8.9,0-17.81.09-26.71a11.18,11.18,0,0,1,.7-2.73,10.44,10.44,0,0,1,2.33,1.3c16.47,16.52,33,33,49.31,49.65,6,6.1,5.88,13.45-.06,19.55-13.51,13.89-27.16,27.64-40.8,41.42C128,164.2,125,167,122,169.75a8,8,0,0,1-2,1,8.15,8.15,0,0,1-.61-2.17C119.35,163.6,119.38,158.64,119.38,153.69Z"/><path class="cls-1" d="M1032.15,58.85h21.18v102.6c-7.5,0-15.23.35-22.9-.23-2.09-.16-4.29-2.83-5.89-4.8Q996.9,122.54,969.41,88.5a37,37,0,0,0-3.14-2.86v75.23h-20.9V58.5c7.77,0,15.29-.33,22.74.21,2.17.16,4.58,2.51,6.16,4.44q26.67,32.6,53.1,65.4c1.19,1.46,2.43,2.87,4.78,5.65Z"/><path class="cls-1" d="M401.9,161.51c-9.19,0-16.69.24-24.15-.17-2-.1-4.34-1.8-5.72-3.44-5.39-6.4-10.94-12.75-15.53-19.71-5.71-8.66-13.2-12.29-23.34-11a45.21,45.21,0,0,1-5.46,0c-2.34-13.81,1.09-18,14.07-18.23,6.72-.12,13.54,0,20.14-1,9-1.48,13.83-8.16,13.12-16.52S368.57,77.2,359.44,77c-14.28-.35-28.58-.09-43.74-.09V161H294.41V58.45h38.8c10,0,20-.25,30,.18,17.79.76,31.1,11.94,33.17,27.37,2.58,19.25-4.33,30.13-24.46,37.19C381.64,135.62,391.15,147.78,401.9,161.51Z"/><path class="cls-1" d="M770.59,161.08c1.4-3.1,2.41-5.49,3.55-7.81C788.5,124,803,94.85,817.14,65.48c2.59-5.4,5.83-6.63,11.58-7.34,12.3-1.5,18.49,3.07,23.57,14.38,12.13,27,25.88,53.31,39,79.91,1.26,2.57,2.35,5.23,4.06,9.06-7.5,0-13.93.48-20.22-.26-2.13-.25-4.61-3.22-5.74-5.53-12-24.37-23.81-48.86-36.47-75-6.82,14.1-13,26.94-19.75,40.8,14.75,2,33.63-5.6,37.08,18.64-11.71,0-23.67.12-35.63,0-7-.1-12.81,2.42-14.73,9-3.32,11.37-10.65,14.2-21.23,12.43A80.49,80.49,0,0,0,770.59,161.08Z"/><path class="cls-1" d="M648.5,58.45c-1,2.76-1.45,4.26-2.11,5.65C631.66,95,617,125.9,602,156.62c-1.15,2.35-5.08,4.56-7.82,4.7-18.16.88-18.13.67-26-15.75q-18.63-39-37.35-78c-1.24-2.59-2.35-5.23-4.07-9.09,7.5,0,13.73-.56,19.76.28,2.37.33,5.12,3.39,6.32,5.87,10.78,22.31,21.25,44.77,31.83,67.18.77,1.64,1.62,3.25,3.1,6.21,2.4-4.81,4.33-8.49,6.11-12.24,9.3-19.74,18.87-39.36,27.67-59.32,2.72-6.17,5.92-8.91,12.63-8.11C638.58,58.88,643.11,58.45,648.5,58.45Z"/><path class="cls-1" d="M455.33,58.85H477v102.3H455.33Z"/><path class="cls-1" d="M720.44,161.16H699.32V59h21.12Z"/></g></g></g></g></svg>