<svg id="Layer_1" data-name="Layer 1" xmlns="http://www.w3.org/2000/svg" viewBox="0 0 478.14 142.39"><defs><style>.cls-1{fill:#fff;}</style></defs><title>teslasvg</title><g id="Layer_2" data-name="Layer 2"><g id="Layer_1-2" data-name="Layer 1-2"><path class="cls-1" d="M77,142.39,55.41,32.16c-6.21,0-12.29-.14-18.28,1.21A11.31,11.31,0,0,0,28.53,41c-.28.8-.6,1.59-1,2.58C19.43,40.05,12.22,35.5,6.85,28c2.36-1,4.49-1.95,6.65-2.8a154,154,0,0,1,46-10.26,3,3,0,0,1,2.9,1.3c4.28,5.33,8.64,10.6,13,15.89l1.7,2c1.53-1.84,3-3.58,4.43-5.34,3.5-4.26,7-8.55,10.53-12.76a3.21,3.21,0,0,1,2.25-1,149.29,149.29,0,0,1,52.24,12.67c.19.09.37.23.75.46C142,35.46,134.85,40,126.68,43.59l-.31-1.49c-1.16-5.87-5.37-8.49-10.71-9.16s-10.63-.57-16-.83c-1.08-.06-1.13.64-1.28,1.41q-2.86,14.77-5.76,29.56L77.49,141.13A11.32,11.32,0,0,1,77,142.39Z"/><path class="cls-1" d="M302.74,59.17h52.51a8.51,8.51,0,0,1-6.95,8.51,15.71,15.71,0,0,1-2.74.18H311.63v8.76h43.64V102.9H302.79c-.34-4.58,3.66-8.67,8.55-8.69h35V85.43H302.74Z"/><path class="cls-1" d="M154.26,15c-1.53,3.11-2.94,6-4.3,8.73-48.64-19.4-97-19.39-145.69,0L0,15C51.47-5,102.66-5,154.26,15Z"/><path class="cls-1" d="M364.13,59.15h8.78v35h43.68c.42,4.09-3,8.14-7.12,8.68a18.53,18.53,0,0,1-2.58.17H364.15Z"/><path class="cls-1" d="M478.08,102.92h-8.57V85.57H434.35V103c-2.78,0-5.41,0-8-.07-.3,0-.79-1-.8-1.5V76.74h52.59Z"/><path class="cls-1" d="M210.54,102.91h-8.87v-35h-9.1a43.8,43.8,0,0,1-5.84-.21A8.13,8.13,0,0,1,180,59.2h52.27A8,8,0,0,1,225,67.69c-3.94.32-7.92.14-11.88.18h-2.54Z"/><path class="cls-1" d="M241.35,59.16h52.4a8.3,8.3,0,0,1-7.93,8.65h-.28q-18,.18-36,0a8.25,8.25,0,0,1-8.2-8.3C241.34,59.4,241.34,59.28,241.35,59.16Z"/><path class="cls-1" d="M425.68,59.14h52.24c.75,3.52-2.48,7.73-6.54,8.52a12.9,12.9,0,0,1-2.4.21h-34.3C429.37,67.86,425.64,64.31,425.68,59.14Z"/><path class="cls-1" d="M241.17,94.28h52.52c.43,3.93-3,8-7.06,8.57a17.61,17.61,0,0,1-2.4.17H250.66c-4.79,0-8.1-2.4-9.17-6.53A20.64,20.64,0,0,1,241.17,94.28Z"/><path class="cls-1" d="M241.19,76.71h52.52a8.39,8.39,0,0,1-6.93,8.56,9,9,0,0,1-1.37.13H249.77a8.44,8.44,0,0,1-8.33-6.65A19.93,19.93,0,0,1,241.19,76.71Z"/></g></g></svg>