<svg width="77" height="22" viewBox="0 0 77 22" fill="none" xmlns="http://www.w3.org/2000/svg">
<path d="M3.64 13.27V9.79H8.11C9.05 9.79 9.77 9.55 10.27 9.07C10.79 8.59 11.05 7.94 11.05 7.12C11.05 6.36 10.8 5.73 10.3 5.23C9.8 4.73 9.08 4.48 8.14 4.48H3.64V0.819999H8.68C10.08 0.819999 11.31 1.09 12.37 1.63C13.43 2.15 14.26 2.88 14.86 3.82C15.46 4.76 15.76 5.84 15.76 7.06C15.76 8.3 15.46 9.39 14.86 10.33C14.26 11.25 13.42 11.97 12.34 12.49C11.26 13.01 9.99 13.27 8.53 13.27H3.64ZM0.0400001 22V0.819999H4.75V22H0.0400001ZM11.56 22L4.96 12.88L9.28 11.71L17.14 22H11.56ZM19.2002 22V0.819999H23.9102V22H19.2002ZM22.8002 22V17.92H34.4102V22H22.8002ZM22.8002 13.15V9.22H33.3602V13.15H22.8002ZM22.8002 4.87V0.819999H34.2602V4.87H22.8002ZM37.6572 22V0.819999H40.9572L42.3672 5.05V22H37.6572ZM52.2672 22L39.7872 6.01L40.9572 0.819999L53.4372 16.81L52.2672 22ZM52.2672 22L51.0072 17.77V0.819999H55.7172V22H52.2672ZM64.9956 22V1.12H69.7056V22H64.9956ZM58.3656 4.93V0.819999H76.3356V4.93H58.3656Z" fill="white"/>
</svg>